<svg xmlns="http://www.w3.org/2000/svg" width="200.475" height="19.335" viewBox="0 0 2250 217">
  <defs>
    <style>
      .cls-1 {
        fill: #fff;
      }

      .cls-1, .cls-2 {
        fill-rule: evenodd;
      }

      .cls-2 {
        fill: #ff001f;
      }
    </style>
  </defs>
  <path id="Color_Fill_1" data-name="Color Fill 1" class="cls-1" d="M169,215H124l-5-7v-3h-1v-3h-1v-3h-1v-3h-1v-2h-1q-0.5-3-1-6h-1q-1-4.5-2-9h-1v-2h-1v-3h-1v-3h-1v-3h-1v-3h-1v-3h-1v-2h-1v-3h-1v-3h-1v-3H99v-3H98v-2H97v-2l-2-1v-2l-2-1v-1H91l-1-2H87c-10.509-4.113-30.827-1.8-43-1v49c0,9.9.5,21.684-1,30H1c-1.927-10.746-1-25.61-1-38V39C0,26.609-.924,11.747,1,1,9.141-1.97,27.615,0,38,0h83V1h6V2h2V3h3V4l6,2,2,3h2l6,7,3,2v2l2,1q0.5,2,1,4h1v2h1q0.5,2.5,1,5h1v3h1v4h1q0.5,8.5,1,17h1V69h-1V84h-1v6h-1v4h-1v3h-1v3h-1q-0.5,2-1,4l-3,2v2l-4,3v2l-15,11v2c3.12,2.142,4.045,5.629,6,9h1v2l2,1v2h1v3h1v2h1v3h1v2h1q1,4.5,2,9h1v3h1v3h1v3h1v3h1v3h1v3h1v3h1l3,13h1v3h1v3h1v3h1v3h1v3C166.247,210.729,168.02,210.882,169,215Zm254,0c-1.927-10.746-1-25.61-1-38V39c0-12.391-.924-27.253,1-38,7.636-2.816,25.176-1.05,35-1,1.851,5.085,1,14.273,1,21V214C451.166,216.888,433.057,215.05,423,215ZM1040,0c1.37,7.724,1,18.714,1,28V214c-7.34,2.682-23.55,1-33,1H937c-2.243-2.041-7.124-1.532-10-3v-1l-6-2c-3.918-2.486-6.774-6.756-10-10l-4-3c-23.909-33.773-23.73-109.038,11-131,19.131-12.1,59.433-2.38,86-7V2C1011.7-1.987,1028.91-.075,1040,0Zm58,215c-1.87-10.439-1.01-24.924-1-37,6.97-3.572,21.79-2,32-2h71c1.14-1.139,0-.4,2-1l3-4h1c3.86-5.511,7.45-16.371,5-25v-8h-1c-0.67-2-1.33-4-2-6-1.24-.658-1.4-1.6-2-2h-2c-0.33-.667-0.67-1.333-1-2h-3v-1h-4v-1h-9v-1h-49v-1h-5v-1h-4v-1l-6-1v-1l-4-1v-1h-2c-0.33-.667-0.67-1.333-1-2h-2c-0.67-1-1.33-2-2-3h-2c-0.33-.667-0.67-1.333-1-2h-1v-2l-3-2v-2c-0.67-.333-1.33-0.667-2-1-0.33-1.333-.67-2.667-1-4h-1c-0.33-1.333-.67-2.667-1-4h-1V93h-1V90h-1V87h-1V83h-1V76h-1V67a38,38,0,0,1,1-18V43h1V39h1V36h1V33h1V30h1V28h1V26c0.67-.333,1.33-0.667,2-1V23c0.67-.333,1.33-0.667,2-1V20c1.33-1,2.67-2,4-3l6-7h2c0.33-.667.67-1.333,1-2h2c0.33-.667.67-1.333,1-2l6-2V3h2V2c8.16-3.537,24.67-2,36-2h77c2.71,7.366,1.05,28.109,1,38-7.34,2.683-20.83,1-30,1h-63c-1.14,1.139,0,.4-2,1l-3,4h-1v2c-0.67.333-1.33,0.667-2,1-2.88,4.592-3.02,10.453-3,18,0.01,4.21.01,8.892,2,11,1.11,4.333,4.59,5.114,7,8h5v1h31c7.41,0,17.23-.684,23,1l11,1v1h3v1h3v1h3c0.33,0.667.67,1.333,1,2l6,2c0.67,1,1.33,2,2,3h2c0.33,0.667.67,1.333,1,2,1.33,1,2.67,2,4,3v2c0.67,0.333,1.33.667,2,1v2c0.67,0.333,1.33.667,2,1,0.33,1.333.67,2.667,1,4h1v3h1v2h1c0.33,2,.67,4,1,6h1q1.005,6,2,12v9h1v14h-1q-0.495,7-1,14h-1v4h-1c-0.33,2-.67,4-1,6h-1c-0.67,2-1.33,4-2,6h-1c-0.33,1.333-.67,2.667-1,4-0.67.333-1.33,0.667-2,1v2c-1.33,1-2.67,2-4,3l-6,7h-2c-0.33.667-.67,1.333-1,2h-2c-0.33.667-.67,1.333-1,2h-2v1h-2v1l-6,2v1h-4v1H1098ZM1732,0h34c2.67,5.22,2,13,2,21V213c-1.14,1.139-.4,0-1,2h-74c-11.81,0-28.26,1.5-37-2v-1l-4-1v-1l-4-1c-0.33-.667-0.67-1.333-1-2h-2c-0.67-1-1.33-2-2-3q-4.005-3.5-8-7v-2l-3-2c-0.33-1.333-.67-2.667-1-4-0.67-.333-1.33-0.667-2-1v-2h-1c-0.67-2-1.33-4-2-6h-1v-3h-1v-3h-1v-2h-1v-3h-1v-5c-5.68-18.077-4.89-45.546,1-63,0.33-2.333.67-4.667,1-7h1c0.33-1.333.67-2.667,1-4h1V87h1V85h1V83c0.67-.333,1.33-0.667,2-1,0.33-1.333.67-2.667,1-4,1.67-1.333,3.33-2.667,5-4V72c0.67-.333,1.33-0.667,2-1V70h2c0.67-1,1.33-2,2-3h2c0.33-.667.67-1.333,1-2h2V64l4-1V62l6-1V60h4V59h69c1.68-4.58,1-12.819,1-19V2C1732.14,0.861,1731.4,2,1732,0Zm92,0h34c3.88,7.5,2.07,24.143,2,35l-3,1c-1.68,1.512-5.83,1-9,1a239.146,239.146,0,0,1-24-1C1822.2,26.291,1822.21,9.71,1824,0ZM1389,215h-33c-4.76,0-9.69.07-13-1h-4v-1l-6-2c-1.67-2-3.33-4-5-6-0.67-.333-1.33-0.667-2-1-4.52-6.734-3-20.963-3-32V97c-5.1-2.665-13.08-2.079-21-2-2.82-7.636-1.05-25.176-1-35,4.78-1.779,13.59-1.05,20-1,4.2-8.138,2.07-30.97,2-43,7.64-2.816,25.18-1.05,35-1,2.93,7.974,1.05,31.307,1,42,6.49,3.37,20.32,2.075,30,2,2.82,7.636,1.05,25.176,1,35-7.03,2.6-20.15,1.052-29,1-3.05,5.937-2,17.042-2,26v56c1.13,0.844.15-.127,1,1,8.45,0.377,19.12.977,29,1,2.74,7.438,1.05,24.409,1,34C1388.86,214.139,1389.6,213,1389,215ZM44,93c11.936,2.213,28.383,1,42,1h17c2.22-.716,4.211-2.389,7-3l3-4h1V85h1q0.5-2,1-4h1c1.263-2.919,3.657-21.9,2-27h-1l-3-9-7-6H45c-1.59,4.333-1,12.088-1,18V93ZM254,59h79v1l7,1v1l4,1v1h3v1l3,1,1,2h2l5,6,3,2c9.671,13.676,9,29.83,9,53,0,34.157,1.031,66.765-20,80-10.894,6.856-33.051,6-51,6-14.668,0-42.36,2.255-53-2v-1h-2v-1l-6-2q-0.5-1-1-2h-2l-2-3-6-5v-2l-2-1q-1-3-2-6h-1v-2h-1l-4-17V96c3.189-10.6,7.026-19.081,15-25l3-4h2l1-2h2V64l4-1V62l6-1V60h4V59Zm267,0h69c16.984,0,29.8-.918,40,6l4,5,5,4q0.5,2,1,4l2,1c8.179,13.106,7,35.711,7,57v78c-7.743,2.826-25.084,1-35,1H537v-1h-4v-1h-2v-1h-2q-0.5-1-1-2l-5-4v-2l-2-1v-2h-1q-1-3-2-6h-1q-1-5-2-10c-8.357-25.6,5.028-58.128,23-64h16c18.447,0,51.555,3.562,58-8,1.809-3.245.166-7.181,0-11-3.017-1.974-.536-1.111-2-3l-2-1V97l-4-1V95H521C518.866,89.384,518.9,64.63,521,59Zm198,0h60c12.169,0,24.5-.74,33,3v1l4,1v1h2l1,2h2l1,2h2l3,4,7,6v2l2,1,7,15c2.929,8.7,1,26.24,1,37v80c-7.636,2.816-25.176,1.05-35,1-2.867-7.85-1-22.28-1-32V113h-1v-6h-1v-3l-2-1v-2c-7.081-10.08-23.833-9-41-9-4.565,0-14.358-1.34-17,1-8.922,2.372-6,17.156-6,28v87h-1v4a13.3,13.3,0,0,0-4,3c-9.256.078-20.315,0.417-28-1-0.6-1.095-1.74-1.571-2-2v-2h-1c-2.827-6.9-1-23.909-1-33V106c0-8.14-1.7-30.01,2-34,1-4.042,3.442-5.591,6-8l1-2h2V61l5-1V59Zm720,0h36v76c0,12-1.55,28.186,2,37l3,1c0.33,0.667.67,1.333,1,2l4,1v1l6,1v1h7c11.19,3.119,30.64-1.236,35-8,3.55-3.615,2-21.554,2-29V59h36V187h-1v3h-1v2h-1v2h-1c-1.42,1.789-2.28,2.385-3,5-2.97.819-3.94,2.333-6,4v1l-6,2c-0.33.667-.67,1.333-1,2h-3v1l-4,1v1h-3v1h-4v1h-4v1h-5v1h-8v1h-13v1h-4v-1h-14v-1h-8v-1h-4v-1h-5v-1l-6-1v-1l-4-1v-1h-3v-1h-2v-1h-2c-0.33-.667-0.67-1.333-1-2h-2l-3-4-3-1v-2l-3-2v-2c-0.67-.333-1.33-0.667-2-1-0.33-1.667-.67-3.333-1-5h-1V59Zm420,156h-35c-2.79-15.672-1-36.58-1-54V60c7.83-2.888,25.94-1.05,36-1,1.4,3.85,1,10.619,1,16V213C1858.86,214.139,1859.6,213,1859,215Zm90-156h78l15,5v1l3,1c0.33,0.667.67,1.333,1,2h2c1.33,1.666,2.67,3.334,4,5,1.33,1,2.67,2,4,3,10.08,14.255,9,30.9,9,55,0,18.954.81,38.9-4,53v4h-1c-0.33,1.333-.67,2.667-1,4h-1v3c-0.67.333-1.33,0.667-2,1-0.33,1.333-.67,2.667-1,4-0.67.333-1.33,0.667-2,1-1.67,2-3.33,4-5,6-12.34,8.348-31.22,8-52,8-15.06,0-44.07,2.369-55-2v-1l-4-1v-1l-4-1c-0.33-.667-0.67-1.333-1-2-21.7-14.645-20-37.584-20-73,0-11.248-1.95-33.254,1-42h1c0.33-2,.67-4,1-6h1c0.33-1.333.67-2.667,1-4h1V80c0.67-.333,1.33-0.667,2-1V77q3.495-3,7-6l3-4h2c0.33-.667.67-1.333,1-2h2V64l4-1V62l6-1V60h4V59Zm206,38c-0.62,2.74-2.39,4.814-3,7-1.04,3.719,2.35,9.062,3,12,2.87,0.667,2.53,1.8,3,2h14c11.96,0,30.08-1.809,40,1l13,1c11.67,4.193,18.04,13.123,22,25,0.33,3.666.67,7.334,1,11,1.04,3.641,2.47,18.96,1,24h-1q-1.005,6-2,12h-1c-0.33,1.333-.67,2.667-1,4h-1v3c-0.67.333-1.33,0.667-2,1v2l-3,2v2c-0.67.333-1.33,0.667-2,1v1h-2c-0.67,1-1.33,2-2,3h-2v1l-4,1v1c-6.69,2.644-18.6,1-27,1h-83c-2.82-7.636-1.05-25.176-1-35,6.58-2.407,18.65-1,27-1h59v-1h5c1.85-.773,3.98-3.249,5-5,4.3-4.1.99-12.494,0-17a19.736,19.736,0,0,1-3-3h-56c-2.28-1.948-7.79-.847-11-2v-1h-3v-1h-2c-0.33-.667-0.67-1.333-1-2l-4-1-3-4c-0.67-.333-1.33-0.667-2-1v-2c-0.67-.333-1.33-0.667-2-1v-2h-1c-0.67-2-1.33-4-2-6h-1q-1.005-6.5-2-13h-1c-1.24-4.332,0-24.76,1-28h1V84h1V81l9-13c12.19-8.7,30.95-9,52-9h61c2.82,7.636,1.05,25.176,1,35-6.58,2.407-18.65,1-27,1h-57C2157.83,96.361,2157.18,96.528,2155,97ZM270,95v1c-2.447,1.412-5.284-.705-8,2-5.666,1.375-5.5,5.026-9,8v59h1q0.5,2,1,4h1l5,6h2v1h3v1h4v1h8v1h15c15.394,0,34.983-1.318,38-13,2.988-3,2-11.125,2-17,0-14.559.3-31.025-1-44l-5-4v-1h-2l-1-2h-3V97h-3V96h-6C301.686,93.008,282.428,95.013,270,95Zm734,83V96c-5.943-1.129-14.556-1-22-1-41.914,0-55.278,5.337-55,48a37.375,37.375,0,0,0,5,19v2C943.756,181.835,976.262,179.606,1004,178Zm727,0V96c-8.13-2.99-32.11-1.047-43-1-2.59,2.2-8.42.652-12,2v1h-2v1h-3v1h-2c-0.33.667-.67,1.333-1,2h-2c-0.33.667-.67,1.333-1,2-1.33,1-2.67,2-4,3v2c-0.67.333-1.33,0.667-2,1v2h-1v2h-1l-3,15c-1.51,16.929,2.09,35.7,11,42C1679.6,181.327,1708.29,178.779,1731,178Zm234-83v1c-2.45,1.412-5.28-.705-8,2-5.67,1.375-5.5,5.026-9,8v59h1c0.33,1.333.67,2.667,1,4h1c1.67,2,3.33,4,5,6h2v1h3v1h4v1h8v1h15c15.39,0,34.98-1.318,38-13,2.99-3,2-11.125,2-17,0-14.559.3-31.025-1-44-1.67-1.333-3.33-2.667-5-4v-1h-2c-0.33-.667-0.67-1.333-1-2h-3V97h-3V96h-5C1998.36,93.112,1977.03,95.012,1965,95ZM612,156c-18.769-.084-44.325-2.022-61,1-0.916,1.634-3.441,4.434-4,6-1.821,5.1,1.993,13.613,4,15,3.929,2.715,11.431,2,18,2h42c2.74-5.25,2.079-13.89,2-22C611.861,156.861,612.6,158,612,156Z"/>
  <path id="Color_Fill_3" data-name="Color Fill 3" class="cls-2" d="M1143,81l3,1v1h2v1h4v1h20c17.9,0,36.32-1,49,4l6,1c0.33,0.667.67,1.333,1,2l6,2c0.67,1,1.33,2,2,3h2c0.33,0.667.67,1.333,1,2,1.33,1,2.67,2,4,3v2c0.67,0.333,1.33.667,2,1v2c0.67,0.333,1.33.667,2,1,0.33,1.333.67,2.667,1,4h1v3h1v2h1c0.33,2,.67,4,1,6h1q1.005,6,2,12v9h1v14h-1q-0.495,7-1,14h-1v4h-1c-0.33,2-.67,4-1,6h-1c-0.67,2-1.33,4-2,6h-1c-0.33,1.333-.67,2.667-1,4-0.67.333-1.33,0.667-2,1v2c-1.33,1-2.67,2-4,3l-6,7h-2c-0.33.667-.67,1.333-1,2h-2c-0.33.667-.67,1.333-1,2h-2v1h-2v1l-6,2v1h-4v1H1098c-1.87-10.439-1.01-24.924-1-37,6.97-3.572,21.79-2,32-2h71c1.14-1.139,0-.4,2-1l3-4h1c3.86-5.511,7.45-16.371,5-25v-8h-1c-0.67-2-1.33-4-2-6-1.24-.658-1.4-1.6-2-2h-2c-0.33-.667-0.67-1.333-1-2h-3v-1h-4v-1h-9v-1h-49v-1h-5v-1h-4v-1l-6-1v-1l-4-1v-1h-2c-0.33-.667-0.67-1.333-1-2h-2c-0.67-1-1.33-2-2-3h-2c-0.33-.667-0.67-1.333-1-2h-1v-2l-3-2v-2c-0.67-.333-1.33-0.667-2-1-0.33-1.333-.67-2.667-1-4h-1c-0.33-1.333-.67-2.667-1-4h-1V93h-1V90h-1V87h-1V83h-1V76h-1V67a38,38,0,0,1,1-18V43h1V39h1V36h1V33h1V30h1V28h1V26c0.67-.333,1.33-0.667,2-1V23c0.67-.333,1.33-0.667,2-1V20c1.33-1,2.67-2,4-3l6-7h2c0.33-.667.67-1.333,1-2h2c0.33-.667.67-1.333,1-2l6-2V3h2V2c8.16-3.537,24.67-2,36-2h77c2.71,7.366,1.05,28.109,1,38-7.34,2.683-20.83,1-30,1h-63v1c-5.75,1.432-7.99,7.607-10,13h-1V73C1139.93,75.809,1142.16,77.907,1143,81Z"/>
</svg>
